<?xml version="1.0" encoding="utf-8" standalone="no"?>
<!DOCTYPE svg PUBLIC "-//W3C//DTD SVG 1.1//EN"
  "http://www.w3.org/Graphics/SVG/1.1/DTD/svg11.dtd">
<svg xmlns:xlink="http://www.w3.org/1999/xlink" width="720pt" height="432pt" viewBox="0 0 720 432" xmlns="http://www.w3.org/2000/svg" version="1.1">
 <metadata>
  <rdf:RDF xmlns:dc="http://purl.org/dc/elements/1.1/" xmlns:cc="http://creativecommons.org/ns#" xmlns:rdf="http://www.w3.org/1999/02/22-rdf-syntax-ns#">
   <cc:Work>
    <dc:type rdf:resource="http://purl.org/dc/dcmitype/StillImage"/>
    <dc:date>2025-10-13T13:55:24.571708</dc:date>
    <dc:format>image/svg+xml</dc:format>
    <dc:creator>
     <cc:Agent>
      <dc:title>Matplotlib v3.10.6, https://matplotlib.org/</dc:title>
     </cc:Agent>
    </dc:creator>
   </cc:Work>
  </rdf:RDF>
 </metadata>
 <defs>
  <style type="text/css">*{stroke-linejoin: round; stroke-linecap: butt}</style>
 </defs>
 <g id="figure_1">
  <g id="patch_1">
   <path d="M 0 432 
L 720 432 
L 720 0 
L 0 0 
z
" style="fill: #ffffff"/>
  </g>
  <g id="axes_1">
   <g id="patch_2">
    <path d="M 50.6 387.16 
L 698.175 387.16 
L 698.175 27.6 
L 50.6 27.6 
z
" style="fill: #ffffff"/>
   </g>
   <g id="matplotlib.axis_1">
    <g id="xtick_1">
     <g id="line2d_1">
      <path d="M 50.6 387.16 
L 50.6 27.6 
" clip-path="url(#p0d03057b80)" style="fill: none; stroke: #b0b0b0; stroke-opacity: 0.3; stroke-width: 0.8; stroke-linecap: square"/>
     </g>
     <g id="line2d_2">
      <defs>
       <path id="m82e5bfbaa2" d="M 0 0 
L 0 3.5 
" style="stroke: #000000; stroke-width: 0.8"/>
      </defs>
      <g>
       <use xlink:href="#m82e5bfbaa2" x="50.6" y="387.16" style="stroke: #000000; stroke-width: 0.8"/>
      </g>
     </g>
     <g id="text_1">
      <!-- 0.0 -->
      <g transform="translate(42.648438 401.758438) scale(0.1 -0.1)">
       <defs>
        <path id="DejaVuSans-30" d="M 2034 4250 
Q 1547 4250 1301 3770 
Q 1056 3291 1056 2328 
Q 1056 1369 1301 889 
Q 1547 409 2034 409 
Q 2525 409 2770 889 
Q 3016 1369 3016 2328 
Q 3016 3291 2770 3770 
Q 2525 4250 2034 4250 
z
M 2034 4750 
Q 2819 4750 3233 4129 
Q 3647 3509 3647 2328 
Q 3647 1150 3233 529 
Q 2819 -91 2034 -91 
Q 1250 -91 836 529 
Q 422 1150 422 2328 
Q 422 3509 836 4129 
Q 1250 4750 2034 4750 
z
" transform="scale(0.015625)"/>
        <path id="DejaVuSans-2e" d="M 684 794 
L 1344 794 
L 1344 0 
L 684 0 
L 684 794 
z
" transform="scale(0.015625)"/>
       </defs>
       <use xlink:href="#DejaVuSans-30"/>
       <use xlink:href="#DejaVuSans-2e" transform="translate(63.623047 0)"/>
       <use xlink:href="#DejaVuSans-30" transform="translate(95.410156 0)"/>
      </g>
     </g>
    </g>
    <g id="xtick_2">
     <g id="line2d_3">
      <path d="M 131.546875 387.16 
L 131.546875 27.6 
" clip-path="url(#p0d03057b80)" style="fill: none; stroke: #b0b0b0; stroke-opacity: 0.3; stroke-width: 0.8; stroke-linecap: square"/>
     </g>
     <g id="line2d_4">
      <g>
       <use xlink:href="#m82e5bfbaa2" x="131.546875" y="387.16" style="stroke: #000000; stroke-width: 0.8"/>
      </g>
     </g>
     <g id="text_2">
      <!-- 2.5 -->
      <g transform="translate(123.595313 401.758438) scale(0.1 -0.1)">
       <defs>
        <path id="DejaVuSans-32" d="M 1228 531 
L 3431 531 
L 3431 0 
L 469 0 
L 469 531 
Q 828 903 1448 1529 
Q 2069 2156 2228 2338 
Q 2531 2678 2651 2914 
Q 2772 3150 2772 3378 
Q 2772 3750 2511 3984 
Q 2250 4219 1831 4219 
Q 1534 4219 1204 4116 
Q 875 4013 500 3803 
L 500 4441 
Q 881 4594 1212 4672 
Q 1544 4750 1819 4750 
Q 2544 4750 2975 4387 
Q 3406 4025 3406 3419 
Q 3406 3131 3298 2873 
Q 3191 2616 2906 2266 
Q 2828 2175 2409 1742 
Q 1991 1309 1228 531 
z
" transform="scale(0.015625)"/>
        <path id="DejaVuSans-35" d="M 691 4666 
L 3169 4666 
L 3169 4134 
L 1269 4134 
L 1269 2991 
Q 1406 3038 1543 3061 
Q 1681 3084 1819 3084 
Q 2600 3084 3056 2656 
Q 3513 2228 3513 1497 
Q 3513 744 3044 326 
Q 2575 -91 1722 -91 
Q 1428 -91 1123 -41 
Q 819 9 494 109 
L 494 744 
Q 775 591 1075 516 
Q 1375 441 1709 441 
Q 2250 441 2565 725 
Q 2881 1009 2881 1497 
Q 2881 1984 2565 2268 
Q 2250 2553 1709 2553 
Q 1456 2553 1204 2497 
Q 953 2441 691 2322 
L 691 4666 
z
" transform="scale(0.015625)"/>
       </defs>
       <use xlink:href="#DejaVuSans-32"/>
       <use xlink:href="#DejaVuSans-2e" transform="translate(63.623047 0)"/>
       <use xlink:href="#DejaVuSans-35" transform="translate(95.410156 0)"/>
      </g>
     </g>
    </g>
    <g id="xtick_3">
     <g id="line2d_5">
      <path d="M 212.49375 387.16 
L 212.49375 27.6 
" clip-path="url(#p0d03057b80)" style="fill: none; stroke: #b0b0b0; stroke-opacity: 0.3; stroke-width: 0.8; stroke-linecap: square"/>
     </g>
     <g id="line2d_6">
      <g>
       <use xlink:href="#m82e5bfbaa2" x="212.49375" y="387.16" style="stroke: #000000; stroke-width: 0.8"/>
      </g>
     </g>
     <g id="text_3">
      <!-- 5.0 -->
      <g transform="translate(204.542188 401.758438) scale(0.1 -0.1)">
       <use xlink:href="#DejaVuSans-35"/>
       <use xlink:href="#DejaVuSans-2e" transform="translate(63.623047 0)"/>
       <use xlink:href="#DejaVuSans-30" transform="translate(95.410156 0)"/>
      </g>
     </g>
    </g>
    <g id="xtick_4">
     <g id="line2d_7">
      <path d="M 293.440625 387.16 
L 293.440625 27.6 
" clip-path="url(#p0d03057b80)" style="fill: none; stroke: #b0b0b0; stroke-opacity: 0.3; stroke-width: 0.8; stroke-linecap: square"/>
     </g>
     <g id="line2d_8">
      <g>
       <use xlink:href="#m82e5bfbaa2" x="293.440625" y="387.16" style="stroke: #000000; stroke-width: 0.8"/>
      </g>
     </g>
     <g id="text_4">
      <!-- 7.5 -->
      <g transform="translate(285.489062 401.758438) scale(0.1 -0.1)">
       <defs>
        <path id="DejaVuSans-37" d="M 525 4666 
L 3525 4666 
L 3525 4397 
L 1831 0 
L 1172 0 
L 2766 4134 
L 525 4134 
L 525 4666 
z
" transform="scale(0.015625)"/>
       </defs>
       <use xlink:href="#DejaVuSans-37"/>
       <use xlink:href="#DejaVuSans-2e" transform="translate(63.623047 0)"/>
       <use xlink:href="#DejaVuSans-35" transform="translate(95.410156 0)"/>
      </g>
     </g>
    </g>
    <g id="xtick_5">
     <g id="line2d_9">
      <path d="M 374.3875 387.16 
L 374.3875 27.6 
" clip-path="url(#p0d03057b80)" style="fill: none; stroke: #b0b0b0; stroke-opacity: 0.3; stroke-width: 0.8; stroke-linecap: square"/>
     </g>
     <g id="line2d_10">
      <g>
       <use xlink:href="#m82e5bfbaa2" x="374.3875" y="387.16" style="stroke: #000000; stroke-width: 0.8"/>
      </g>
     </g>
     <g id="text_5">
      <!-- 10.0 -->
      <g transform="translate(363.254688 401.758438) scale(0.1 -0.1)">
       <defs>
        <path id="DejaVuSans-31" d="M 794 531 
L 1825 531 
L 1825 4091 
L 703 3866 
L 703 4441 
L 1819 4666 
L 2450 4666 
L 2450 531 
L 3481 531 
L 3481 0 
L 794 0 
L 794 531 
z
" transform="scale(0.015625)"/>
       </defs>
       <use xlink:href="#DejaVuSans-31"/>
       <use xlink:href="#DejaVuSans-30" transform="translate(63.623047 0)"/>
       <use xlink:href="#DejaVuSans-2e" transform="translate(127.246094 0)"/>
       <use xlink:href="#DejaVuSans-30" transform="translate(159.033203 0)"/>
      </g>
     </g>
    </g>
    <g id="xtick_6">
     <g id="line2d_11">
      <path d="M 455.334375 387.16 
L 455.334375 27.6 
" clip-path="url(#p0d03057b80)" style="fill: none; stroke: #b0b0b0; stroke-opacity: 0.3; stroke-width: 0.8; stroke-linecap: square"/>
     </g>
     <g id="line2d_12">
      <g>
       <use xlink:href="#m82e5bfbaa2" x="455.334375" y="387.16" style="stroke: #000000; stroke-width: 0.8"/>
      </g>
     </g>
     <g id="text_6">
      <!-- 12.5 -->
      <g transform="translate(444.201563 401.758438) scale(0.1 -0.1)">
       <use xlink:href="#DejaVuSans-31"/>
       <use xlink:href="#DejaVuSans-32" transform="translate(63.623047 0)"/>
       <use xlink:href="#DejaVuSans-2e" transform="translate(127.246094 0)"/>
       <use xlink:href="#DejaVuSans-35" transform="translate(159.033203 0)"/>
      </g>
     </g>
    </g>
    <g id="xtick_7">
     <g id="line2d_13">
      <path d="M 536.28125 387.16 
L 536.28125 27.6 
" clip-path="url(#p0d03057b80)" style="fill: none; stroke: #b0b0b0; stroke-opacity: 0.3; stroke-width: 0.8; stroke-linecap: square"/>
     </g>
     <g id="line2d_14">
      <g>
       <use xlink:href="#m82e5bfbaa2" x="536.28125" y="387.16" style="stroke: #000000; stroke-width: 0.8"/>
      </g>
     </g>
     <g id="text_7">
      <!-- 15.0 -->
      <g transform="translate(525.148438 401.758438) scale(0.1 -0.1)">
       <use xlink:href="#DejaVuSans-31"/>
       <use xlink:href="#DejaVuSans-35" transform="translate(63.623047 0)"/>
       <use xlink:href="#DejaVuSans-2e" transform="translate(127.246094 0)"/>
       <use xlink:href="#DejaVuSans-30" transform="translate(159.033203 0)"/>
      </g>
     </g>
    </g>
    <g id="xtick_8">
     <g id="line2d_15">
      <path d="M 617.228125 387.16 
L 617.228125 27.6 
" clip-path="url(#p0d03057b80)" style="fill: none; stroke: #b0b0b0; stroke-opacity: 0.3; stroke-width: 0.8; stroke-linecap: square"/>
     </g>
     <g id="line2d_16">
      <g>
       <use xlink:href="#m82e5bfbaa2" x="617.228125" y="387.16" style="stroke: #000000; stroke-width: 0.8"/>
      </g>
     </g>
     <g id="text_8">
      <!-- 17.5 -->
      <g transform="translate(606.095313 401.758438) scale(0.1 -0.1)">
       <use xlink:href="#DejaVuSans-31"/>
       <use xlink:href="#DejaVuSans-37" transform="translate(63.623047 0)"/>
       <use xlink:href="#DejaVuSans-2e" transform="translate(127.246094 0)"/>
       <use xlink:href="#DejaVuSans-35" transform="translate(159.033203 0)"/>
      </g>
     </g>
    </g>
    <g id="xtick_9">
     <g id="line2d_17">
      <path d="M 698.175 387.16 
L 698.175 27.6 
" clip-path="url(#p0d03057b80)" style="fill: none; stroke: #b0b0b0; stroke-opacity: 0.3; stroke-width: 0.8; stroke-linecap: square"/>
     </g>
     <g id="line2d_18">
      <g>
       <use xlink:href="#m82e5bfbaa2" x="698.175" y="387.16" style="stroke: #000000; stroke-width: 0.8"/>
      </g>
     </g>
     <g id="text_9">
      <!-- 20.0 -->
      <g transform="translate(687.042188 401.758438) scale(0.1 -0.1)">
       <use xlink:href="#DejaVuSans-32"/>
       <use xlink:href="#DejaVuSans-30" transform="translate(63.623047 0)"/>
       <use xlink:href="#DejaVuSans-2e" transform="translate(127.246094 0)"/>
       <use xlink:href="#DejaVuSans-30" transform="translate(159.033203 0)"/>
      </g>
     </g>
    </g>
    <g id="text_10">
     <!-- x -->
     <g transform="translate(370.83625 416.95625) scale(0.12 -0.12)">
      <defs>
       <path id="DejaVuSans-78" d="M 3513 3500 
L 2247 1797 
L 3578 0 
L 2900 0 
L 1881 1375 
L 863 0 
L 184 0 
L 1544 1831 
L 300 3500 
L 978 3500 
L 1906 2253 
L 2834 3500 
L 3513 3500 
z
" transform="scale(0.015625)"/>
      </defs>
      <use xlink:href="#DejaVuSans-78"/>
     </g>
    </g>
   </g>
   <g id="matplotlib.axis_2">
    <g id="ytick_1">
     <g id="line2d_19">
      <path d="M 50.6 387.16 
L 698.175 387.16 
" clip-path="url(#p0d03057b80)" style="fill: none; stroke: #b0b0b0; stroke-opacity: 0.3; stroke-width: 0.8; stroke-linecap: square"/>
     </g>
     <g id="line2d_20">
      <defs>
       <path id="mf997d294a0" d="M 0 0 
L -3.5 0 
" style="stroke: #000000; stroke-width: 0.8"/>
      </defs>
      <g>
       <use xlink:href="#mf997d294a0" x="50.6" y="387.16" style="stroke: #000000; stroke-width: 0.8"/>
      </g>
     </g>
     <g id="text_11">
      <!-- 0.0 -->
      <g transform="translate(27.696875 390.959219) scale(0.1 -0.1)">
       <use xlink:href="#DejaVuSans-30"/>
       <use xlink:href="#DejaVuSans-2e" transform="translate(63.623047 0)"/>
       <use xlink:href="#DejaVuSans-30" transform="translate(95.410156 0)"/>
      </g>
     </g>
    </g>
    <g id="ytick_2">
     <g id="line2d_21">
      <path d="M 50.6 315.248 
L 698.175 315.248 
" clip-path="url(#p0d03057b80)" style="fill: none; stroke: #b0b0b0; stroke-opacity: 0.3; stroke-width: 0.8; stroke-linecap: square"/>
     </g>
     <g id="line2d_22">
      <g>
       <use xlink:href="#mf997d294a0" x="50.6" y="315.248" style="stroke: #000000; stroke-width: 0.8"/>
      </g>
     </g>
     <g id="text_12">
      <!-- 0.1 -->
      <g transform="translate(27.696875 319.047219) scale(0.1 -0.1)">
       <use xlink:href="#DejaVuSans-30"/>
       <use xlink:href="#DejaVuSans-2e" transform="translate(63.623047 0)"/>
       <use xlink:href="#DejaVuSans-31" transform="translate(95.410156 0)"/>
      </g>
     </g>
    </g>
    <g id="ytick_3">
     <g id="line2d_23">
      <path d="M 50.6 243.336 
L 698.175 243.336 
" clip-path="url(#p0d03057b80)" style="fill: none; stroke: #b0b0b0; stroke-opacity: 0.3; stroke-width: 0.8; stroke-linecap: square"/>
     </g>
     <g id="line2d_24">
      <g>
       <use xlink:href="#mf997d294a0" x="50.6" y="243.336" style="stroke: #000000; stroke-width: 0.8"/>
      </g>
     </g>
     <g id="text_13">
      <!-- 0.2 -->
      <g transform="translate(27.696875 247.135219) scale(0.1 -0.1)">
       <use xlink:href="#DejaVuSans-30"/>
       <use xlink:href="#DejaVuSans-2e" transform="translate(63.623047 0)"/>
       <use xlink:href="#DejaVuSans-32" transform="translate(95.410156 0)"/>
      </g>
     </g>
    </g>
    <g id="ytick_4">
     <g id="line2d_25">
      <path d="M 50.6 171.424 
L 698.175 171.424 
" clip-path="url(#p0d03057b80)" style="fill: none; stroke: #b0b0b0; stroke-opacity: 0.3; stroke-width: 0.8; stroke-linecap: square"/>
     </g>
     <g id="line2d_26">
      <g>
       <use xlink:href="#mf997d294a0" x="50.6" y="171.424" style="stroke: #000000; stroke-width: 0.8"/>
      </g>
     </g>
     <g id="text_14">
      <!-- 0.3 -->
      <g transform="translate(27.696875 175.223219) scale(0.1 -0.1)">
       <defs>
        <path id="DejaVuSans-33" d="M 2597 2516 
Q 3050 2419 3304 2112 
Q 3559 1806 3559 1356 
Q 3559 666 3084 287 
Q 2609 -91 1734 -91 
Q 1441 -91 1130 -33 
Q 819 25 488 141 
L 488 750 
Q 750 597 1062 519 
Q 1375 441 1716 441 
Q 2309 441 2620 675 
Q 2931 909 2931 1356 
Q 2931 1769 2642 2001 
Q 2353 2234 1838 2234 
L 1294 2234 
L 1294 2753 
L 1863 2753 
Q 2328 2753 2575 2939 
Q 2822 3125 2822 3475 
Q 2822 3834 2567 4026 
Q 2313 4219 1838 4219 
Q 1578 4219 1281 4162 
Q 984 4106 628 3988 
L 628 4550 
Q 988 4650 1302 4700 
Q 1616 4750 1894 4750 
Q 2613 4750 3031 4423 
Q 3450 4097 3450 3541 
Q 3450 3153 3228 2886 
Q 3006 2619 2597 2516 
z
" transform="scale(0.015625)"/>
       </defs>
       <use xlink:href="#DejaVuSans-30"/>
       <use xlink:href="#DejaVuSans-2e" transform="translate(63.623047 0)"/>
       <use xlink:href="#DejaVuSans-33" transform="translate(95.410156 0)"/>
      </g>
     </g>
    </g>
    <g id="ytick_5">
     <g id="line2d_27">
      <path d="M 50.6 99.512 
L 698.175 99.512 
" clip-path="url(#p0d03057b80)" style="fill: none; stroke: #b0b0b0; stroke-opacity: 0.3; stroke-width: 0.8; stroke-linecap: square"/>
     </g>
     <g id="line2d_28">
      <g>
       <use xlink:href="#mf997d294a0" x="50.6" y="99.512" style="stroke: #000000; stroke-width: 0.8"/>
      </g>
     </g>
     <g id="text_15">
      <!-- 0.4 -->
      <g transform="translate(27.696875 103.311219) scale(0.1 -0.1)">
       <defs>
        <path id="DejaVuSans-34" d="M 2419 4116 
L 825 1625 
L 2419 1625 
L 2419 4116 
z
M 2253 4666 
L 3047 4666 
L 3047 1625 
L 3713 1625 
L 3713 1100 
L 3047 1100 
L 3047 0 
L 2419 0 
L 2419 1100 
L 313 1100 
L 313 1709 
L 2253 4666 
z
" transform="scale(0.015625)"/>
       </defs>
       <use xlink:href="#DejaVuSans-30"/>
       <use xlink:href="#DejaVuSans-2e" transform="translate(63.623047 0)"/>
       <use xlink:href="#DejaVuSans-34" transform="translate(95.410156 0)"/>
      </g>
     </g>
    </g>
    <g id="ytick_6">
     <g id="line2d_29">
      <path d="M 50.6 27.6 
L 698.175 27.6 
" clip-path="url(#p0d03057b80)" style="fill: none; stroke: #b0b0b0; stroke-opacity: 0.3; stroke-width: 0.8; stroke-linecap: square"/>
     </g>
     <g id="line2d_30">
      <g>
       <use xlink:href="#mf997d294a0" x="50.6" y="27.6" style="stroke: #000000; stroke-width: 0.8"/>
      </g>
     </g>
     <g id="text_16">
      <!-- 0.5 -->
      <g transform="translate(27.696875 31.399219) scale(0.1 -0.1)">
       <use xlink:href="#DejaVuSans-30"/>
       <use xlink:href="#DejaVuSans-2e" transform="translate(63.623047 0)"/>
       <use xlink:href="#DejaVuSans-35" transform="translate(95.410156 0)"/>
      </g>
     </g>
    </g>
    <g id="text_17">
     <!-- Probability Density -->
     <g transform="translate(21.20125 263.811875) rotate(-90) scale(0.12 -0.12)">
      <defs>
       <path id="DejaVuSans-50" d="M 1259 4147 
L 1259 2394 
L 2053 2394 
Q 2494 2394 2734 2622 
Q 2975 2850 2975 3272 
Q 2975 3691 2734 3919 
Q 2494 4147 2053 4147 
L 1259 4147 
z
M 628 4666 
L 2053 4666 
Q 2838 4666 3239 4311 
Q 3641 3956 3641 3272 
Q 3641 2581 3239 2228 
Q 2838 1875 2053 1875 
L 1259 1875 
L 1259 0 
L 628 0 
L 628 4666 
z
" transform="scale(0.015625)"/>
       <path id="DejaVuSans-72" d="M 2631 2963 
Q 2534 3019 2420 3045 
Q 2306 3072 2169 3072 
Q 1681 3072 1420 2755 
Q 1159 2438 1159 1844 
L 1159 0 
L 581 0 
L 581 3500 
L 1159 3500 
L 1159 2956 
Q 1341 3275 1631 3429 
Q 1922 3584 2338 3584 
Q 2397 3584 2469 3576 
Q 2541 3569 2628 3553 
L 2631 2963 
z
" transform="scale(0.015625)"/>
       <path id="DejaVuSans-6f" d="M 1959 3097 
Q 1497 3097 1228 2736 
Q 959 2375 959 1747 
Q 959 1119 1226 758 
Q 1494 397 1959 397 
Q 2419 397 2687 759 
Q 2956 1122 2956 1747 
Q 2956 2369 2687 2733 
Q 2419 3097 1959 3097 
z
M 1959 3584 
Q 2709 3584 3137 3096 
Q 3566 2609 3566 1747 
Q 3566 888 3137 398 
Q 2709 -91 1959 -91 
Q 1206 -91 779 398 
Q 353 888 353 1747 
Q 353 2609 779 3096 
Q 1206 3584 1959 3584 
z
" transform="scale(0.015625)"/>
       <path id="DejaVuSans-62" d="M 3116 1747 
Q 3116 2381 2855 2742 
Q 2594 3103 2138 3103 
Q 1681 3103 1420 2742 
Q 1159 2381 1159 1747 
Q 1159 1113 1420 752 
Q 1681 391 2138 391 
Q 2594 391 2855 752 
Q 3116 1113 3116 1747 
z
M 1159 2969 
Q 1341 3281 1617 3432 
Q 1894 3584 2278 3584 
Q 2916 3584 3314 3078 
Q 3713 2572 3713 1747 
Q 3713 922 3314 415 
Q 2916 -91 2278 -91 
Q 1894 -91 1617 61 
Q 1341 213 1159 525 
L 1159 0 
L 581 0 
L 581 4863 
L 1159 4863 
L 1159 2969 
z
" transform="scale(0.015625)"/>
       <path id="DejaVuSans-61" d="M 2194 1759 
Q 1497 1759 1228 1600 
Q 959 1441 959 1056 
Q 959 750 1161 570 
Q 1363 391 1709 391 
Q 2188 391 2477 730 
Q 2766 1069 2766 1631 
L 2766 1759 
L 2194 1759 
z
M 3341 1997 
L 3341 0 
L 2766 0 
L 2766 531 
Q 2569 213 2275 61 
Q 1981 -91 1556 -91 
Q 1019 -91 701 211 
Q 384 513 384 1019 
Q 384 1609 779 1909 
Q 1175 2209 1959 2209 
L 2766 2209 
L 2766 2266 
Q 2766 2663 2505 2880 
Q 2244 3097 1772 3097 
Q 1472 3097 1187 3025 
Q 903 2953 641 2809 
L 641 3341 
Q 956 3463 1253 3523 
Q 1550 3584 1831 3584 
Q 2591 3584 2966 3190 
Q 3341 2797 3341 1997 
z
" transform="scale(0.015625)"/>
       <path id="DejaVuSans-69" d="M 603 3500 
L 1178 3500 
L 1178 0 
L 603 0 
L 603 3500 
z
M 603 4863 
L 1178 4863 
L 1178 4134 
L 603 4134 
L 603 4863 
z
" transform="scale(0.015625)"/>
       <path id="DejaVuSans-6c" d="M 603 4863 
L 1178 4863 
L 1178 0 
L 603 0 
L 603 4863 
z
" transform="scale(0.015625)"/>
       <path id="DejaVuSans-74" d="M 1172 4494 
L 1172 3500 
L 2356 3500 
L 2356 3053 
L 1172 3053 
L 1172 1153 
Q 1172 725 1289 603 
Q 1406 481 1766 481 
L 2356 481 
L 2356 0 
L 1766 0 
Q 1100 0 847 248 
Q 594 497 594 1153 
L 594 3053 
L 172 3053 
L 172 3500 
L 594 3500 
L 594 4494 
L 1172 4494 
z
" transform="scale(0.015625)"/>
       <path id="DejaVuSans-79" d="M 2059 -325 
Q 1816 -950 1584 -1140 
Q 1353 -1331 966 -1331 
L 506 -1331 
L 506 -850 
L 844 -850 
Q 1081 -850 1212 -737 
Q 1344 -625 1503 -206 
L 1606 56 
L 191 3500 
L 800 3500 
L 1894 763 
L 2988 3500 
L 3597 3500 
L 2059 -325 
z
" transform="scale(0.015625)"/>
       <path id="DejaVuSans-20" transform="scale(0.015625)"/>
       <path id="DejaVuSans-44" d="M 1259 4147 
L 1259 519 
L 2022 519 
Q 2988 519 3436 956 
Q 3884 1394 3884 2338 
Q 3884 3275 3436 3711 
Q 2988 4147 2022 4147 
L 1259 4147 
z
M 628 4666 
L 1925 4666 
Q 3281 4666 3915 4102 
Q 4550 3538 4550 2338 
Q 4550 1131 3912 565 
Q 3275 0 1925 0 
L 628 0 
L 628 4666 
z
" transform="scale(0.015625)"/>
       <path id="DejaVuSans-65" d="M 3597 1894 
L 3597 1613 
L 953 1613 
Q 991 1019 1311 708 
Q 1631 397 2203 397 
Q 2534 397 2845 478 
Q 3156 559 3463 722 
L 3463 178 
Q 3153 47 2828 -22 
Q 2503 -91 2169 -91 
Q 1331 -91 842 396 
Q 353 884 353 1716 
Q 353 2575 817 3079 
Q 1281 3584 2069 3584 
Q 2775 3584 3186 3129 
Q 3597 2675 3597 1894 
z
M 3022 2063 
Q 3016 2534 2758 2815 
Q 2500 3097 2075 3097 
Q 1594 3097 1305 2825 
Q 1016 2553 972 2059 
L 3022 2063 
z
" transform="scale(0.015625)"/>
       <path id="DejaVuSans-6e" d="M 3513 2113 
L 3513 0 
L 2938 0 
L 2938 2094 
Q 2938 2591 2744 2837 
Q 2550 3084 2163 3084 
Q 1697 3084 1428 2787 
Q 1159 2491 1159 1978 
L 1159 0 
L 581 0 
L 581 3500 
L 1159 3500 
L 1159 2956 
Q 1366 3272 1645 3428 
Q 1925 3584 2291 3584 
Q 2894 3584 3203 3211 
Q 3513 2838 3513 2113 
z
" transform="scale(0.015625)"/>
       <path id="DejaVuSans-73" d="M 2834 3397 
L 2834 2853 
Q 2591 2978 2328 3040 
Q 2066 3103 1784 3103 
Q 1356 3103 1142 2972 
Q 928 2841 928 2578 
Q 928 2378 1081 2264 
Q 1234 2150 1697 2047 
L 1894 2003 
Q 2506 1872 2764 1633 
Q 3022 1394 3022 966 
Q 3022 478 2636 193 
Q 2250 -91 1575 -91 
Q 1294 -91 989 -36 
Q 684 19 347 128 
L 347 722 
Q 666 556 975 473 
Q 1284 391 1588 391 
Q 1994 391 2212 530 
Q 2431 669 2431 922 
Q 2431 1156 2273 1281 
Q 2116 1406 1581 1522 
L 1381 1569 
Q 847 1681 609 1914 
Q 372 2147 372 2553 
Q 372 3047 722 3315 
Q 1072 3584 1716 3584 
Q 2034 3584 2315 3537 
Q 2597 3491 2834 3397 
z
" transform="scale(0.015625)"/>
      </defs>
      <use xlink:href="#DejaVuSans-50"/>
      <use xlink:href="#DejaVuSans-72" transform="translate(58.552734 0)"/>
      <use xlink:href="#DejaVuSans-6f" transform="translate(97.416016 0)"/>
      <use xlink:href="#DejaVuSans-62" transform="translate(158.597656 0)"/>
      <use xlink:href="#DejaVuSans-61" transform="translate(222.074219 0)"/>
      <use xlink:href="#DejaVuSans-62" transform="translate(283.353516 0)"/>
      <use xlink:href="#DejaVuSans-69" transform="translate(346.830078 0)"/>
      <use xlink:href="#DejaVuSans-6c" transform="translate(374.613281 0)"/>
      <use xlink:href="#DejaVuSans-69" transform="translate(402.396484 0)"/>
      <use xlink:href="#DejaVuSans-74" transform="translate(430.179688 0)"/>
      <use xlink:href="#DejaVuSans-79" transform="translate(469.388672 0)"/>
      <use xlink:href="#DejaVuSans-20" transform="translate(528.568359 0)"/>
      <use xlink:href="#DejaVuSans-44" transform="translate(560.355469 0)"/>
      <use xlink:href="#DejaVuSans-65" transform="translate(637.357422 0)"/>
      <use xlink:href="#DejaVuSans-6e" transform="translate(698.880859 0)"/>
      <use xlink:href="#DejaVuSans-73" transform="translate(762.259766 0)"/>
      <use xlink:href="#DejaVuSans-69" transform="translate(814.359375 0)"/>
      <use xlink:href="#DejaVuSans-74" transform="translate(842.142578 0)"/>
      <use xlink:href="#DejaVuSans-79" transform="translate(881.351562 0)"/>
     </g>
    </g>
   </g>
   <g id="line2d_31">
    <path d="M 50.6 387.16 
L 51.248223 346.972 
L 51.896446 330.89166 
L 52.54467 318.932032 
L 53.841116 300.823939 
L 55.137563 287.030589 
L 56.434009 275.874313 
L 57.730455 266.567634 
L 59.026902 258.660758 
L 60.323348 251.865565 
L 61.619795 245.982924 
L 62.916241 240.867542 
L 64.212688 236.409001 
L 65.509134 232.520696 
L 66.805581 229.132966 
L 68.102027 226.188615 
L 69.398473 223.639873 
L 70.69492 221.446275 
L 71.991366 219.573119 
L 73.287813 217.990337 
L 74.584259 216.671637 
L 75.880706 215.593853 
L 77.177152 214.736428 
L 78.473599 214.081009 
L 79.770045 213.611127 
L 81.066491 213.311925 
L 83.011161 213.154056 
L 84.955831 213.309822 
L 86.900501 213.743929 
L 88.84517 214.425352 
L 90.78984 215.326664 
L 93.382733 216.828734 
L 95.975626 218.628045 
L 98.568519 220.680819 
L 101.809635 223.545739 
L 105.698974 227.339193 
L 110.236537 232.140359 
L 115.422322 237.97867 
L 122.552778 246.375205 
L 146.537037 274.912853 
L 153.667492 282.946783 
L 160.797948 290.637516 
L 167.28018 297.299804 
L 173.762412 303.631442 
L 180.244645 309.624559 
L 186.078654 314.727616 
L 191.912663 319.557578 
L 197.746672 324.119259 
L 203.580681 328.41935 
L 209.41469 332.46594 
L 215.896922 336.675938 
L 222.379154 340.597723 
L 228.861386 344.245436 
L 235.343619 347.633545 
L 241.825851 350.77658 
L 248.308083 353.688936 
L 255.438539 356.642924 
L 262.568994 359.35307 
L 269.699449 361.836875 
L 277.478128 364.307934 
L 285.256807 366.549989 
L 293.683709 368.74275 
L 302.110611 370.712109 
L 311.185736 372.607243 
L 320.909084 374.404693 
L 331.280656 376.085856 
L 342.30045 377.637116 
L 353.968468 379.049756 
L 366.28471 380.319672 
L 379.897397 381.498244 
L 394.806532 382.561896 
L 411.012112 383.49658 
L 429.810586 384.349033 
L 451.201952 385.083598 
L 475.834434 385.69758 
L 505.004479 386.196502 
L 541.953203 386.59372 
L 590.569945 386.879798 
L 663.170946 387.062732 
L 698.175 387.101752 
L 698.175 387.101752 
" clip-path="url(#p0d03057b80)" style="fill: none; stroke: #1f77b4; stroke-width: 2; stroke-linecap: square"/>
   </g>
   <g id="line2d_32">
    <path d="M 50.6 387.16 
L 53.192893 373.328264 
L 55.785786 360.582292 
L 58.378679 348.858161 
L 60.971572 338.095295 
L 63.564464 328.236296 
L 66.157357 319.226793 
L 68.75025 311.01529 
L 71.343143 303.553024 
L 73.936036 296.793832 
L 76.528929 290.694018 
L 79.121822 285.212235 
L 81.714715 280.309367 
L 84.307608 275.948413 
L 86.900501 272.094388 
L 89.493393 268.714216 
L 92.086286 265.776638 
L 94.679179 263.252118 
L 97.272072 261.112758 
L 99.864965 259.332212 
L 102.457858 257.885609 
L 105.050751 256.749478 
L 107.643644 255.901677 
L 110.236537 255.321323 
L 112.829429 254.988727 
L 115.422322 254.885334 
L 118.015215 254.993666 
L 120.608108 255.297261 
L 123.849224 255.927828 
L 127.09034 256.811085 
L 130.331456 257.920858 
L 134.220796 259.517615 
L 138.110135 261.367364 
L 142.647698 263.798754 
L 147.18526 266.477131 
L 152.371046 269.78363 
L 158.853278 274.200029 
L 166.631957 279.787361 
L 178.299975 288.473996 
L 197.098448 302.471136 
L 207.47002 309.896112 
L 216.545145 316.114092 
L 224.972047 321.61545 
L 232.750726 326.441208 
L 240.529404 331.014246 
L 248.308083 335.32995 
L 256.086762 339.387986 
L 263.86544 343.191396 
L 271.644119 346.745831 
L 279.422798 350.058927 
L 287.201476 353.139779 
L 295.628378 356.227055 
L 304.05528 359.067433 
L 312.482182 361.6752 
L 321.557307 364.240029 
L 330.632432 366.569853 
L 340.355781 368.825299 
L 350.079129 370.852068 
L 360.450701 372.784328 
L 371.470495 374.602549 
L 383.138514 376.291681 
L 395.454755 377.84124 
L 408.419219 379.245204 
L 422.68013 380.556532 
L 437.589264 381.704346 
L 454.443068 382.77135 
L 472.593318 383.695028 
L 493.336461 384.521081 
L 516.672497 385.222544 
L 543.897873 385.813206 
L 576.957257 386.297497 
L 618.443544 386.669677 
L 674.190741 386.93234 
L 698.175 386.99676 
L 698.175 386.99676 
" clip-path="url(#p0d03057b80)" style="fill: none; stroke: #ff7f0e; stroke-width: 2; stroke-linecap: square"/>
   </g>
   <g id="line2d_33">
    <path d="M 50.6 387.16 
L 52.54467 387.00267 
L 54.489339 386.549298 
L 56.434009 385.826571 
L 58.378679 384.859589 
L 60.323348 383.671943 
L 62.916241 381.78326 
L 65.509134 379.590305 
L 68.75025 376.48907 
L 71.991366 373.061346 
L 75.880706 368.61635 
L 81.066491 362.301015 
L 89.493393 351.590695 
L 98.568519 340.130082 
L 104.402528 333.091871 
L 109.588313 327.168516 
L 114.125876 322.292386 
L 118.663438 317.733811 
L 123.201001 313.513904 
L 127.09034 310.177157 
L 130.97968 307.1048 
L 134.869019 304.299199 
L 138.758358 301.760272 
L 142.647698 299.485841 
L 146.537037 297.471947 
L 150.426376 295.713128 
L 154.315716 294.202673 
L 158.205055 292.932844 
L 162.094394 291.895071 
L 165.983734 291.08013 
L 169.873073 290.478296 
L 173.762412 290.079479 
L 178.299975 289.856983 
L 182.837538 289.880094 
L 187.3751 290.13209 
L 191.912663 290.596343 
L 197.098448 291.36579 
L 202.284234 292.367111 
L 208.118243 293.741914 
L 213.952252 295.349179 
L 220.434484 297.371142 
L 227.56494 299.837744 
L 235.343619 302.763999 
L 244.418744 306.415596 
L 256.086762 311.365564 
L 276.181682 320.18523 
L 296.276602 328.914134 
L 309.889289 334.580853 
L 321.557307 339.20931 
L 332.577102 343.35569 
L 343.596897 347.265665 
L 354.616692 350.929353 
L 364.988263 354.149112 
L 375.359835 357.148168 
L 386.37963 360.097208 
L 397.399424 362.809007 
L 408.419219 365.293297 
L 420.087237 367.688312 
L 431.755255 369.85557 
L 444.071496 371.913103 
L 457.035961 373.843401 
L 470.648649 375.633031 
L 484.90956 377.272778 
L 499.818694 378.757598 
L 515.376051 380.086404 
L 532.229855 381.304689 
L 550.380105 382.396163 
L 570.475025 383.38053 
L 593.162838 384.260135 
L 618.443544 385.010236 
L 647.613589 385.645485 
L 681.969419 386.163526 
L 698.175 386.3438 
L 698.175 386.3438 
" clip-path="url(#p0d03057b80)" style="fill: none; stroke: #2ca02c; stroke-width: 2; stroke-linecap: square"/>
   </g>
   <g id="line2d_34">
    <path d="M 50.6 387.16 
L 54.489339 387.069931 
L 57.730455 386.770109 
L 60.971572 386.213709 
L 64.212688 385.383617 
L 67.453804 384.278058 
L 70.69492 382.904803 
L 73.936036 381.277862 
L 77.177152 379.415344 
L 81.066491 376.898677 
L 84.955831 374.111378 
L 89.493393 370.57093 
L 94.679179 366.221871 
L 101.161411 360.465047 
L 112.181206 350.296403 
L 123.201001 340.232244 
L 130.331456 334.031532 
L 136.165465 329.233977 
L 141.999474 324.734643 
L 147.18526 321.014457 
L 152.371046 317.576589 
L 157.556832 314.434267 
L 162.094394 311.93394 
L 166.631957 309.669452 
L 171.16952 307.64163 
L 175.707082 305.849368 
L 180.244645 304.289872 
L 184.782207 302.958886 
L 189.31977 301.850899 
L 193.857332 300.959344 
L 198.394895 300.27677 
L 202.932457 299.795006 
L 208.118243 299.479071 
L 213.304029 299.40024 
L 218.489815 299.544247 
L 223.675601 299.896505 
L 229.50961 300.523375 
L 235.343619 301.374213 
L 241.825851 302.557088 
L 248.308083 303.963138 
L 255.438539 305.735548 
L 263.217217 307.899969 
L 271.644119 310.469639 
L 281.367467 313.662859 
L 293.683709 317.956976 
L 311.833959 324.558414 
L 341.652227 335.40371 
L 356.561361 340.578383 
L 370.174049 345.069534 
L 383.138514 349.104801 
L 395.454755 352.701123 
L 407.770996 356.056985 
L 419.439014 359.011653 
L 431.755255 361.895134 
L 444.071496 364.542382 
L 456.387738 366.961812 
L 469.352202 369.274049 
L 482.316667 371.359513 
L 495.929354 373.321672 
L 510.190265 375.146573 
L 525.099399 376.824266 
L 540.656757 378.34884 
L 557.510561 379.768784 
L 575.012588 381.019646 
L 594.459284 382.179095 
L 615.202427 383.18959 
L 638.538463 384.09588 
L 664.467392 384.872976 
L 694.285661 385.535224 
L 698.175 385.606718 
L 698.175 385.606718 
" clip-path="url(#p0d03057b80)" style="fill: none; stroke: #d62728; stroke-width: 2; stroke-linecap: square"/>
   </g>
   <g id="line2d_35">
    <path d="M 50.6 387.16 
L 64.212688 387.05331 
L 70.69492 386.782734 
L 76.528929 386.31867 
L 81.714715 385.689983 
L 86.900501 384.832672 
L 92.086286 383.731919 
L 97.272072 382.381335 
L 102.457858 380.782074 
L 107.643644 378.941822 
L 112.829429 376.873747 
L 118.663438 374.296925 
L 124.497447 371.484421 
L 130.97968 368.124706 
L 138.758358 363.836036 
L 149.12993 357.83 
L 175.707082 342.278112 
L 184.133984 337.655919 
L 191.912663 333.637553 
L 199.043118 330.203643 
L 205.52535 327.313639 
L 212.007583 324.661458 
L 218.489815 322.259442 
L 224.972047 320.116093 
L 230.806056 318.412408 
L 236.640065 316.923686 
L 242.474074 315.649398 
L 248.308083 314.587304 
L 254.142092 313.733647 
L 260.624324 313.023377 
L 267.106557 312.555508 
L 273.588789 312.319967 
L 280.071021 312.305499 
L 286.553253 312.499925 
L 293.683709 312.939683 
L 300.814164 313.598814 
L 308.592843 314.546662 
L 317.019745 315.816037 
L 325.446647 317.308369 
L 335.169995 319.268955 
L 345.541567 321.595329 
L 357.209585 324.441923 
L 371.470495 328.159389 
L 391.565415 333.651551 
L 431.755255 344.672538 
L 449.905506 349.381174 
L 466.111086 353.350654 
L 481.02022 356.77675 
L 495.929354 359.97015 
L 510.190265 362.799869 
L 524.451176 365.408551 
L 538.712087 367.799375 
L 553.621221 370.073022 
L 568.530355 372.125976 
L 584.087713 374.046279 
L 600.293293 375.822177 
L 617.147097 377.445854 
L 635.297347 378.963786 
L 654.095821 380.310753 
L 674.190741 381.527961 
L 696.23033 382.634645 
L 698.175 382.722051 
L 698.175 382.722051 
" clip-path="url(#p0d03057b80)" style="fill: none; stroke: #9467bd; stroke-width: 2; stroke-linecap: square"/>
   </g>
   <g id="patch_3">
    <path d="M 50.6 387.16 
L 50.6 27.6 
" style="fill: none; stroke: #000000; stroke-width: 0.8; stroke-linejoin: miter; stroke-linecap: square"/>
   </g>
   <g id="patch_4">
    <path d="M 698.175 387.16 
L 698.175 27.6 
" style="fill: none; stroke: #000000; stroke-width: 0.8; stroke-linejoin: miter; stroke-linecap: square"/>
   </g>
   <g id="patch_5">
    <path d="M 50.6 387.16 
L 698.175 387.16 
" style="fill: none; stroke: #000000; stroke-width: 0.8; stroke-linejoin: miter; stroke-linecap: square"/>
   </g>
   <g id="patch_6">
    <path d="M 50.6 27.6 
L 698.175 27.6 
" style="fill: none; stroke: #000000; stroke-width: 0.8; stroke-linejoin: miter; stroke-linecap: square"/>
   </g>
   <g id="text_18">
    <!-- Chi-Square Probability Density Function -->
    <g transform="translate(235.894688 21.6) scale(0.14 -0.14)">
     <defs>
      <path id="DejaVuSans-43" d="M 4122 4306 
L 4122 3641 
Q 3803 3938 3442 4084 
Q 3081 4231 2675 4231 
Q 1875 4231 1450 3742 
Q 1025 3253 1025 2328 
Q 1025 1406 1450 917 
Q 1875 428 2675 428 
Q 3081 428 3442 575 
Q 3803 722 4122 1019 
L 4122 359 
Q 3791 134 3420 21 
Q 3050 -91 2638 -91 
Q 1578 -91 968 557 
Q 359 1206 359 2328 
Q 359 3453 968 4101 
Q 1578 4750 2638 4750 
Q 3056 4750 3426 4639 
Q 3797 4528 4122 4306 
z
" transform="scale(0.015625)"/>
      <path id="DejaVuSans-68" d="M 3513 2113 
L 3513 0 
L 2938 0 
L 2938 2094 
Q 2938 2591 2744 2837 
Q 2550 3084 2163 3084 
Q 1697 3084 1428 2787 
Q 1159 2491 1159 1978 
L 1159 0 
L 581 0 
L 581 4863 
L 1159 4863 
L 1159 2956 
Q 1366 3272 1645 3428 
Q 1925 3584 2291 3584 
Q 2894 3584 3203 3211 
Q 3513 2838 3513 2113 
z
" transform="scale(0.015625)"/>
      <path id="DejaVuSans-2d" d="M 313 2009 
L 1997 2009 
L 1997 1497 
L 313 1497 
L 313 2009 
z
" transform="scale(0.015625)"/>
      <path id="DejaVuSans-53" d="M 3425 4513 
L 3425 3897 
Q 3066 4069 2747 4153 
Q 2428 4238 2131 4238 
Q 1616 4238 1336 4038 
Q 1056 3838 1056 3469 
Q 1056 3159 1242 3001 
Q 1428 2844 1947 2747 
L 2328 2669 
Q 3034 2534 3370 2195 
Q 3706 1856 3706 1288 
Q 3706 609 3251 259 
Q 2797 -91 1919 -91 
Q 1588 -91 1214 -16 
Q 841 59 441 206 
L 441 856 
Q 825 641 1194 531 
Q 1563 422 1919 422 
Q 2459 422 2753 634 
Q 3047 847 3047 1241 
Q 3047 1584 2836 1778 
Q 2625 1972 2144 2069 
L 1759 2144 
Q 1053 2284 737 2584 
Q 422 2884 422 3419 
Q 422 4038 858 4394 
Q 1294 4750 2059 4750 
Q 2388 4750 2728 4690 
Q 3069 4631 3425 4513 
z
" transform="scale(0.015625)"/>
      <path id="DejaVuSans-71" d="M 947 1747 
Q 947 1113 1208 752 
Q 1469 391 1925 391 
Q 2381 391 2643 752 
Q 2906 1113 2906 1747 
Q 2906 2381 2643 2742 
Q 2381 3103 1925 3103 
Q 1469 3103 1208 2742 
Q 947 2381 947 1747 
z
M 2906 525 
Q 2725 213 2448 61 
Q 2172 -91 1784 -91 
Q 1150 -91 751 415 
Q 353 922 353 1747 
Q 353 2572 751 3078 
Q 1150 3584 1784 3584 
Q 2172 3584 2448 3432 
Q 2725 3281 2906 2969 
L 2906 3500 
L 3481 3500 
L 3481 -1331 
L 2906 -1331 
L 2906 525 
z
" transform="scale(0.015625)"/>
      <path id="DejaVuSans-75" d="M 544 1381 
L 544 3500 
L 1119 3500 
L 1119 1403 
Q 1119 906 1312 657 
Q 1506 409 1894 409 
Q 2359 409 2629 706 
Q 2900 1003 2900 1516 
L 2900 3500 
L 3475 3500 
L 3475 0 
L 2900 0 
L 2900 538 
Q 2691 219 2414 64 
Q 2138 -91 1772 -91 
Q 1169 -91 856 284 
Q 544 659 544 1381 
z
M 1991 3584 
L 1991 3584 
z
" transform="scale(0.015625)"/>
      <path id="DejaVuSans-46" d="M 628 4666 
L 3309 4666 
L 3309 4134 
L 1259 4134 
L 1259 2759 
L 3109 2759 
L 3109 2228 
L 1259 2228 
L 1259 0 
L 628 0 
L 628 4666 
z
" transform="scale(0.015625)"/>
      <path id="DejaVuSans-63" d="M 3122 3366 
L 3122 2828 
Q 2878 2963 2633 3030 
Q 2388 3097 2138 3097 
Q 1578 3097 1268 2742 
Q 959 2388 959 1747 
Q 959 1106 1268 751 
Q 1578 397 2138 397 
Q 2388 397 2633 464 
Q 2878 531 3122 666 
L 3122 134 
Q 2881 22 2623 -34 
Q 2366 -91 2075 -91 
Q 1284 -91 818 406 
Q 353 903 353 1747 
Q 353 2603 823 3093 
Q 1294 3584 2113 3584 
Q 2378 3584 2631 3529 
Q 2884 3475 3122 3366 
z
" transform="scale(0.015625)"/>
     </defs>
     <use xlink:href="#DejaVuSans-43"/>
     <use xlink:href="#DejaVuSans-68" transform="translate(69.824219 0)"/>
     <use xlink:href="#DejaVuSans-69" transform="translate(133.203125 0)"/>
     <use xlink:href="#DejaVuSans-2d" transform="translate(160.986328 0)"/>
     <use xlink:href="#DejaVuSans-53" transform="translate(197.070312 0)"/>
     <use xlink:href="#DejaVuSans-71" transform="translate(260.546875 0)"/>
     <use xlink:href="#DejaVuSans-75" transform="translate(324.023438 0)"/>
     <use xlink:href="#DejaVuSans-61" transform="translate(387.402344 0)"/>
     <use xlink:href="#DejaVuSans-72" transform="translate(448.681641 0)"/>
     <use xlink:href="#DejaVuSans-65" transform="translate(487.544922 0)"/>
     <use xlink:href="#DejaVuSans-20" transform="translate(549.068359 0)"/>
     <use xlink:href="#DejaVuSans-50" transform="translate(580.855469 0)"/>
     <use xlink:href="#DejaVuSans-72" transform="translate(639.408203 0)"/>
     <use xlink:href="#DejaVuSans-6f" transform="translate(678.271484 0)"/>
     <use xlink:href="#DejaVuSans-62" transform="translate(739.453125 0)"/>
     <use xlink:href="#DejaVuSans-61" transform="translate(802.929688 0)"/>
     <use xlink:href="#DejaVuSans-62" transform="translate(864.208984 0)"/>
     <use xlink:href="#DejaVuSans-69" transform="translate(927.685547 0)"/>
     <use xlink:href="#DejaVuSans-6c" transform="translate(955.46875 0)"/>
     <use xlink:href="#DejaVuSans-69" transform="translate(983.251953 0)"/>
     <use xlink:href="#DejaVuSans-74" transform="translate(1011.035156 0)"/>
     <use xlink:href="#DejaVuSans-79" transform="translate(1050.244141 0)"/>
     <use xlink:href="#DejaVuSans-20" transform="translate(1109.423828 0)"/>
     <use xlink:href="#DejaVuSans-44" transform="translate(1141.210938 0)"/>
     <use xlink:href="#DejaVuSans-65" transform="translate(1218.212891 0)"/>
     <use xlink:href="#DejaVuSans-6e" transform="translate(1279.736328 0)"/>
     <use xlink:href="#DejaVuSans-73" transform="translate(1343.115234 0)"/>
     <use xlink:href="#DejaVuSans-69" transform="translate(1395.214844 0)"/>
     <use xlink:href="#DejaVuSans-74" transform="translate(1422.998047 0)"/>
     <use xlink:href="#DejaVuSans-79" transform="translate(1462.207031 0)"/>
     <use xlink:href="#DejaVuSans-20" transform="translate(1521.386719 0)"/>
     <use xlink:href="#DejaVuSans-46" transform="translate(1553.173828 0)"/>
     <use xlink:href="#DejaVuSans-75" transform="translate(1605.193359 0)"/>
     <use xlink:href="#DejaVuSans-6e" transform="translate(1668.572266 0)"/>
     <use xlink:href="#DejaVuSans-63" transform="translate(1731.951172 0)"/>
     <use xlink:href="#DejaVuSans-74" transform="translate(1786.931641 0)"/>
     <use xlink:href="#DejaVuSans-69" transform="translate(1826.140625 0)"/>
     <use xlink:href="#DejaVuSans-6f" transform="translate(1853.923828 0)"/>
     <use xlink:href="#DejaVuSans-6e" transform="translate(1915.105469 0)"/>
    </g>
   </g>
   <g id="legend_1">
    <g id="patch_7">
     <path d="M 632.285938 108.990625 
L 691.175 108.990625 
Q 693.175 108.990625 693.175 106.990625 
L 693.175 34.6 
Q 693.175 32.6 691.175 32.6 
L 632.285938 32.6 
Q 630.285938 32.6 630.285938 34.6 
L 630.285938 106.990625 
Q 630.285938 108.990625 632.285938 108.990625 
z
" style="fill: #ffffff; opacity: 0.8; stroke: #cccccc; stroke-linejoin: miter"/>
    </g>
    <g id="line2d_36">
     <path d="M 634.285938 40.698438 
L 644.285938 40.698438 
L 654.285938 40.698438 
" style="fill: none; stroke: #1f77b4; stroke-width: 2; stroke-linecap: square"/>
    </g>
    <g id="text_19">
     <!-- k = 3 -->
     <g transform="translate(662.285938 44.198438) scale(0.1 -0.1)">
      <defs>
       <path id="DejaVuSans-6b" d="M 581 4863 
L 1159 4863 
L 1159 1991 
L 2875 3500 
L 3609 3500 
L 1753 1863 
L 3688 0 
L 2938 0 
L 1159 1709 
L 1159 0 
L 581 0 
L 581 4863 
z
" transform="scale(0.015625)"/>
       <path id="DejaVuSans-3d" d="M 678 2906 
L 4684 2906 
L 4684 2381 
L 678 2381 
L 678 2906 
z
M 678 1631 
L 4684 1631 
L 4684 1100 
L 678 1100 
L 678 1631 
z
" transform="scale(0.015625)"/>
      </defs>
      <use xlink:href="#DejaVuSans-6b"/>
      <use xlink:href="#DejaVuSans-20" transform="translate(57.910156 0)"/>
      <use xlink:href="#DejaVuSans-3d" transform="translate(89.697266 0)"/>
      <use xlink:href="#DejaVuSans-20" transform="translate(173.486328 0)"/>
      <use xlink:href="#DejaVuSans-33" transform="translate(205.273438 0)"/>
     </g>
    </g>
    <g id="line2d_37">
     <path d="M 634.285938 55.376563 
L 644.285938 55.376563 
L 654.285938 55.376563 
" style="fill: none; stroke: #ff7f0e; stroke-width: 2; stroke-linecap: square"/>
    </g>
    <g id="text_20">
     <!-- k = 4 -->
     <g transform="translate(662.285938 58.876563) scale(0.1 -0.1)">
      <use xlink:href="#DejaVuSans-6b"/>
      <use xlink:href="#DejaVuSans-20" transform="translate(57.910156 0)"/>
      <use xlink:href="#DejaVuSans-3d" transform="translate(89.697266 0)"/>
      <use xlink:href="#DejaVuSans-20" transform="translate(173.486328 0)"/>
      <use xlink:href="#DejaVuSans-34" transform="translate(205.273438 0)"/>
     </g>
    </g>
    <g id="line2d_38">
     <path d="M 634.285938 70.054688 
L 644.285938 70.054688 
L 654.285938 70.054688 
" style="fill: none; stroke: #2ca02c; stroke-width: 2; stroke-linecap: square"/>
    </g>
    <g id="text_21">
     <!-- k = 6 -->
     <g transform="translate(662.285938 73.554688) scale(0.1 -0.1)">
      <defs>
       <path id="DejaVuSans-36" d="M 2113 2584 
Q 1688 2584 1439 2293 
Q 1191 2003 1191 1497 
Q 1191 994 1439 701 
Q 1688 409 2113 409 
Q 2538 409 2786 701 
Q 3034 994 3034 1497 
Q 3034 2003 2786 2293 
Q 2538 2584 2113 2584 
z
M 3366 4563 
L 3366 3988 
Q 3128 4100 2886 4159 
Q 2644 4219 2406 4219 
Q 1781 4219 1451 3797 
Q 1122 3375 1075 2522 
Q 1259 2794 1537 2939 
Q 1816 3084 2150 3084 
Q 2853 3084 3261 2657 
Q 3669 2231 3669 1497 
Q 3669 778 3244 343 
Q 2819 -91 2113 -91 
Q 1303 -91 875 529 
Q 447 1150 447 2328 
Q 447 3434 972 4092 
Q 1497 4750 2381 4750 
Q 2619 4750 2861 4703 
Q 3103 4656 3366 4563 
z
" transform="scale(0.015625)"/>
      </defs>
      <use xlink:href="#DejaVuSans-6b"/>
      <use xlink:href="#DejaVuSans-20" transform="translate(57.910156 0)"/>
      <use xlink:href="#DejaVuSans-3d" transform="translate(89.697266 0)"/>
      <use xlink:href="#DejaVuSans-20" transform="translate(173.486328 0)"/>
      <use xlink:href="#DejaVuSans-36" transform="translate(205.273438 0)"/>
     </g>
    </g>
    <g id="line2d_39">
     <path d="M 634.285938 84.732813 
L 644.285938 84.732813 
L 654.285938 84.732813 
" style="fill: none; stroke: #d62728; stroke-width: 2; stroke-linecap: square"/>
    </g>
    <g id="text_22">
     <!-- k = 7 -->
     <g transform="translate(662.285938 88.232813) scale(0.1 -0.1)">
      <use xlink:href="#DejaVuSans-6b"/>
      <use xlink:href="#DejaVuSans-20" transform="translate(57.910156 0)"/>
      <use xlink:href="#DejaVuSans-3d" transform="translate(89.697266 0)"/>
      <use xlink:href="#DejaVuSans-20" transform="translate(173.486328 0)"/>
      <use xlink:href="#DejaVuSans-37" transform="translate(205.273438 0)"/>
     </g>
    </g>
    <g id="line2d_40">
     <path d="M 634.285938 99.410938 
L 644.285938 99.410938 
L 654.285938 99.410938 
" style="fill: none; stroke: #9467bd; stroke-width: 2; stroke-linecap: square"/>
    </g>
    <g id="text_23">
     <!-- k = 9 -->
     <g transform="translate(662.285938 102.910938) scale(0.1 -0.1)">
      <defs>
       <path id="DejaVuSans-39" d="M 703 97 
L 703 672 
Q 941 559 1184 500 
Q 1428 441 1663 441 
Q 2288 441 2617 861 
Q 2947 1281 2994 2138 
Q 2813 1869 2534 1725 
Q 2256 1581 1919 1581 
Q 1219 1581 811 2004 
Q 403 2428 403 3163 
Q 403 3881 828 4315 
Q 1253 4750 1959 4750 
Q 2769 4750 3195 4129 
Q 3622 3509 3622 2328 
Q 3622 1225 3098 567 
Q 2575 -91 1691 -91 
Q 1453 -91 1209 -44 
Q 966 3 703 97 
z
M 1959 2075 
Q 2384 2075 2632 2365 
Q 2881 2656 2881 3163 
Q 2881 3666 2632 3958 
Q 2384 4250 1959 4250 
Q 1534 4250 1286 3958 
Q 1038 3666 1038 3163 
Q 1038 2656 1286 2365 
Q 1534 2075 1959 2075 
z
" transform="scale(0.015625)"/>
      </defs>
      <use xlink:href="#DejaVuSans-6b"/>
      <use xlink:href="#DejaVuSans-20" transform="translate(57.910156 0)"/>
      <use xlink:href="#DejaVuSans-3d" transform="translate(89.697266 0)"/>
      <use xlink:href="#DejaVuSans-20" transform="translate(173.486328 0)"/>
      <use xlink:href="#DejaVuSans-39" transform="translate(205.273438 0)"/>
     </g>
    </g>
   </g>
  </g>
 </g>
 <defs>
  <clipPath id="p0d03057b80">
   <rect x="50.6" y="27.6" width="647.575" height="359.56"/>
  </clipPath>
 </defs>
</svg>
